<?xml version="1.0" standalone="no"?>
<!DOCTYPE svg PUBLIC "-//W3C//DTD SVG 20010904//EN"
        "http://www.w3.org/TR/2001/REC-SVG-20010904/DTD/svg10.dtd">
<svg version="1.0" xmlns="http://www.w3.org/2000/svg"
     width="225.000000pt" height="225.000000pt" viewBox="0 0 225.000000 225.000000"
     preserveAspectRatio="xMidYMid meet">
    <metadata>
        Created by potrace 1.16, written by Peter Selinger 2001-2019
    </metadata>
    <g transform="translate(0.000000,225.000000) scale(0.100000,-0.100000)"
       fill="#000000" stroke="none">
        <path d="M1664 1439 c13 -45 26 -122 22 -126 -2 -3 -52 7 -110 22 -82 20 -130
26 -213 26 -105 0 -238 -20 -272 -42 -18 -11 -18 -11 69 12 64 16 252 14 336
-4 40 -9 124 -36 188 -61 122 -49 168 -59 131 -30 -11 9 -37 24 -58 34 -36 16
-39 21 -42 62 -1 25 -6 55 -10 67 -7 22 -6 22 23 7 17 -9 59 -40 94 -69 35
-29 95 -74 135 -100 125 -83 173 -153 173 -255 0 -26 9 -58 23 -82 17 -31 20
-43 11 -57 -17 -27 -39 -27 -118 -3 -148 45 -189 64 -230 103 -23 21 -57 47
-77 58 -39 20 -63 54 -31 45 9 -2 33 -8 52 -11 19 -4 41 -12 48 -17 8 -7 12
-7 12 0 0 16 -31 30 -81 38 -24 4 -52 11 -61 16 -32 16 -20 -12 20 -48 20 -19
70 -65 110 -104 78 -73 126 -98 240 -120 49 -10 68 -10 93 0 45 19 51 45 29
148 -32 157 -64 210 -175 285 -33 22 -93 69 -133 103 -73 64 -137 106 -181
119 -22 7 -23 5 -17 -16z"/>
        <path d="M1074 1236 c-93 -21 -194 -81 -194 -115 0 -5 15 6 33 23 17 18 59 44
92 57 54 21 75 23 210 23 132 -1 160 -4 238 -28 48 -14 124 -44 168 -67 45
-22 83 -38 86 -36 10 11 -140 89 -228 118 -82 28 -110 32 -219 35 -82 3 -146
-1 -186 -10z"/>
        <path d="M107 1072 c-19 -21 -23 -92 -7 -123 10 -17 22 -19 130 -19 l120 0 0
-25 0 -25 -124 0 c-69 0 -127 -4 -131 -10 -3 -5 3 -18 15 -30 18 -18 33 -20
145 -20 118 0 125 1 125 20 0 15 7 20 25 20 23 0 25 4 25 41 0 76 -5 79 -140
79 l-120 0 0 30 0 30 130 0 c73 0 130 4 130 9 0 5 -7 17 -16 25 -12 13 -41 16
-153 16 -121 0 -140 -2 -154 -18z"/>
        <path d="M516 1068 c-12 -16 -16 -47 -16 -115 0 -131 2 -133 164 -133 115 0
124 1 129 20 3 12 14 20 26 20 20 0 21 5 21 99 0 135 5 131 -170 131 -132 0
-140 -1 -154 -22z m244 -113 l0 -75 -90 0 -90 0 0 75 0 75 90 0 90 0 0 -75z"/>
        <path d="M940 955 l0 -135 30 0 29 0 3 101 3 100 70 -100 c67 -96 72 -101 106
-101 28 0 38 5 42 20 3 11 12 20 21 20 14 0 16 16 16 115 l0 115 -30 0 -30 0
0 -95 c0 -52 -4 -95 -8 -95 -4 0 -38 43 -75 95 l-68 95 -54 0 -55 0 0 -135z"/>
        <path d="M1357 1083 c-4 -3 -7 -62 -7 -130 0 -98 3 -123 14 -123 8 0 16 7 20
15 3 8 15 15 26 15 19 0 20 6 20 115 l0 115 -33 0 c-19 0 -37 -3 -40 -7z"/>
        <path d="M1593 1048 c-12 -24 -45 -85 -73 -136 l-51 -93 47 3 47 3 53 96 52
97 -16 36 c-9 19 -22 35 -28 36 -5 0 -20 -19 -31 -42z"/>
        <path d="M1704 975 c3 -8 9 -22 12 -30 5 -12 -2 -15 -34 -15 -31 0 -43 -5 -56
-25 -9 -13 -16 -27 -16 -30 0 -3 34 -5 75 -5 71 0 76 -2 87 -25 14 -32 58 -35
58 -5 0 11 5 20 12 20 17 0 -70 87 -111 111 -26 16 -32 17 -27 4z"/>
    </g>
</svg>
